<?xml version="1.0" encoding="UTF-8"?>
<svg width="185px" height="20px" viewBox="0 0 185 20" version="1.1" xmlns="http://www.w3.org/2000/svg" xmlns:xlink="http://www.w3.org/1999/xlink">
    <!-- Generator: Sketch 51.3 (57544) - http://www.bohemiancoding.com/sketch -->
    <title>Group 23</title>
    <desc>Created with Sketch.</desc>
    <defs></defs>
    <g id="Page-1" stroke="none" stroke-width="1" fill="none" fill-rule="evenodd">
        <g id="Login-Copy-7" transform="translate(-94.000000, -112.000000)">
            <g id="Group-23" transform="translate(94.000000, 110.000000)">
                <path d="M11.5869349,17.0551619 C12.1514233,16.691813 12.432586,16.1273247 12.432586,15.3681851 C12.432586,13.8628828 11.3144233,13.1102316 9.08458605,13.1102316 L4.17721395,13.1102316 L4.17721395,17.6001851 L9.08458605,17.6001851 C10.1897721,17.6001851 11.0246093,17.4185107 11.5869349,17.0551619 Z M4.17721395,5.76539442 L4.17721395,10.04772 L8.35788837,10.04772 C9.39386512,10.04772 10.1832837,9.86604558 10.7196558,9.50269674 C11.2560279,9.13934791 11.524214,8.60297581 11.524214,7.89358047 C11.524214,7.18634791 11.2560279,6.6521386 10.7196558,6.29744093 C10.1832837,5.94274326 9.39386512,5.76539442 8.35788837,5.76539442 L4.17721395,5.76539442 Z M15.7784233,12.9674874 C16.3667023,13.7374409 16.6630047,14.6825805 16.6630047,15.8093944 C16.6630047,17.4012084 16.0444465,18.6253479 14.8051674,19.481813 C13.5680512,20.3382781 11.7642837,20.7665107 9.39386512,20.7665107 L0.000865116279,20.7665107 L0.000865116279,2.59690605 L8.87479535,2.59690605 C11.0916558,2.59690605 12.7916093,3.02297581 13.9746558,3.86862698 C15.1598651,4.71860372 15.7546326,5.86704558 15.7546326,7.32260372 C15.7546326,8.20285953 15.5405163,8.99227814 15.1187721,9.68437116 C14.6948651,10.3764642 14.1000977,10.9214874 13.3409581,11.3194409 C14.3769349,11.6481851 15.1901442,12.197534 15.7784233,12.9674874 Z" id="Fill-1" fill="#FFFFFF"></path>
                <path d="M30.4944837,13.6822898 L27.6136465,6.72459209 L24.7328093,13.6822898 L30.4944837,13.6822898 Z M31.8181116,16.8745688 L23.3832279,16.8745688 L21.7741116,20.7654293 L17.4658326,20.7654293 L25.5633209,2.59798744 L29.7158791,2.59798744 L37.8393209,20.7654293 L33.4272279,20.7654293 L31.8181116,16.8745688 Z" id="Fill-3" fill="#FFFFFF"></path>
                <g id="Group-7" transform="translate(36.767442, 1.611539)">
                    <polygon id="Clip-6" points="1.56413023 0.675655814 18.9032233 0.675655814 18.9032233 19.4651163 1.56413023 19.4651163"></polygon>
                    <path d="M6.38066512,18.2591442 C4.88401395,17.454586 3.70745581,16.338586 2.84882791,14.9111442 C1.99452558,13.4837023 1.56413023,11.8724233 1.56413023,10.0708186 C1.56413023,8.27353953 1.99452558,6.66009767 2.84882791,5.23265581 C3.70745581,3.80305116 4.88401395,2.68921395 6.38066512,1.88249302 C7.87515349,1.08009767 9.55996744,0.675655814 11.4286186,0.675655814 C13.0031302,0.675655814 14.4262465,0.952493023 15.6979674,1.50616744 C16.9696884,2.05984186 18.038107,2.85574884 18.9032233,3.89172558 L16.2040605,6.38542326 C14.9755953,4.96663256 13.4529907,4.25507442 11.6362465,4.25507442 C10.5094326,4.25507442 9.50589767,4.50595814 8.62564186,4.99691163 C7.74322326,5.49002791 7.05545581,6.17779535 6.56233953,7.06021395 C6.06706047,7.94263256 5.82050233,8.94616744 5.82050233,10.0708186 C5.82050233,11.1954698 6.06706047,12.1990047 6.56233953,13.0792605 C7.05545581,13.9638419 7.74322326,14.6516093 8.62564186,15.1468884 C9.50589767,15.6378419 10.5094326,15.8844 11.6362465,15.8844 C13.4529907,15.8844 14.9755953,15.1663535 16.2040605,13.7302605 L18.9032233,16.2239581 C18.038107,17.2772372 16.9653628,18.0817953 15.6849907,18.6354698 C14.4046186,19.1891442 12.9771767,19.4659814 11.4005023,19.4659814 C9.55131628,19.4659814 7.87515349,19.0637023 6.38066512,18.2591442" id="Fill-5" fill="#FFFFFF"></path>
                </g>
                <polygon id="Fill-8" fill="#FFFFFF" points="65.1160047 13.6293014 62.6763767 16.1727433 62.6763767 20.7665107 58.4978651 20.7665107 58.4978651 2.59690605 62.6763767 2.59690605 62.6763767 11.0836967 70.7241209 2.59690605 75.393586 2.59690605 67.8670744 10.6965572 75.8347953 20.7665107 70.929586 20.7665107"></polygon>
                <polygon id="Fill-10" fill="#009EFF" points="123.638093 2.52618279 117.746651 20.6914619 112.244512 20.6914619 108.766744 9.6374386 105.133256 20.6914619 99.6311163 20.6914619 93.7396744 2.52618279 99.034186 2.52618279 102.693628 14.1252293 106.534744 2.52618279 111.258279 2.52618279 114.917721 14.231206 118.732884 2.52618279"></polygon>
                <g id="Group-14" transform="translate(123.279070, 1.611539)">
                    <polygon id="Clip-13" points="1.03576047 0.551511628 21.2275744 0.551511628 21.2275744 19.4450023 1.03576047 19.4450023"></polygon>
                    <path d="M13.6210395,14.539793 C14.3650395,14.1072349 14.9533186,13.4973279 15.3858767,12.7100721 C15.8184349,11.9228163 16.034714,11.0187698 16.034714,9.99576977 C16.034714,8.97709535 15.8184349,8.07304884 15.3858767,7.28579302 C14.9533186,6.49853721 14.3650395,5.88863023 13.6210395,5.45607209 C12.8770395,5.02351395 12.0465279,4.80723488 11.1316674,4.80723488 C10.2124814,4.80723488 9.38196977,5.02351395 8.63796977,5.45607209 C7.89613256,5.88863023 7.3056907,6.49853721 6.87313256,7.28579302 C6.44057442,8.07304884 6.22429535,8.97709535 6.22429535,9.99576977 C6.22429535,11.0187698 6.44057442,11.9228163 6.87313256,12.7100721 C7.3056907,13.4973279 7.89613256,14.1072349 8.63796977,14.539793 C9.38196977,14.9723512 10.2124814,15.1886302 11.1316674,15.1886302 C12.0465279,15.1886302 12.8770395,14.9723512 13.6210395,14.539793 M5.95178372,18.2251884 C4.42052791,17.4119791 3.21801628,16.2873279 2.34424884,14.8512349 C1.4704814,13.4129791 1.03576047,11.7973744 1.03576047,9.99576977 C1.03576047,8.1984907 1.4704814,6.58072326 2.34424884,5.14463023 C3.21801628,3.70853721 4.42052791,2.58388605 5.95178372,1.77067674 C7.48303953,0.957467442 9.20894651,0.550862791 11.1316674,0.550862791 C13.0500628,0.550862791 14.7759698,0.957467442 16.3072256,1.77067674 C17.8384814,2.58388605 19.040993,3.70853721 19.9147605,5.14463023 C20.7885279,6.58072326 21.2275744,8.1984907 21.2275744,9.99576977 C21.2275744,11.7973744 20.7885279,13.4129791 19.9147605,14.8512349 C19.040993,16.2873279 17.8384814,17.4119791 16.3072256,18.2251884 C14.7759698,19.0383977 13.0500628,19.4450023 11.1316674,19.4450023 C9.20894651,19.4450023 7.48303953,19.0383977 5.95178372,18.2251884" id="Fill-12" fill="#009EFF"></path>
                </g>
                <path d="M157.585905,7.27415721 C157.049533,6.80699442 156.253626,6.57557581 155.198184,6.57557581 L152.341137,6.57557581 L152.341137,11.8960409 L155.198184,11.8960409 C156.253626,11.8960409 157.049533,11.6646223 157.585905,11.2061107 C158.120114,10.7475991 158.390463,10.0965991 158.390463,9.24662233 C158.390463,8.40097116 158.120114,7.74348279 157.585905,7.27415721 Z M155.146277,15.8669247 L152.341137,15.8669247 L152.341137,20.6921107 L147.202347,20.6921107 L147.202347,2.52683163 L155.509626,2.52683163 C157.153347,2.52683163 158.580788,2.79934326 159.791951,3.34436651 C161.000951,3.88938977 161.93744,4.66583163 162.592765,5.68018047 C163.250253,6.69020372 163.578998,7.8797386 163.578998,9.24662233 C163.578998,10.5637619 163.274044,11.7100409 162.659812,12.6854595 C162.045579,13.6630409 161.165323,14.4308316 160.025533,14.9823433 L163.942347,20.6921107 L158.44237,20.6921107 L155.146277,15.8669247 Z" id="Fill-15" fill="#009EFF"></path>
                <polygon id="Fill-17" fill="#009EFF" points="173.416019 14.1003572 171.49546 16.1506828 171.49546 20.6925433 166.408577 20.6925433 166.408577 2.5251014 171.49546 2.5251014 171.49546 10.0775665 178.528856 2.5251014 184.186716 2.5251014 176.764019 10.5706828 184.576019 20.6925433 178.606716 20.6925433"></polygon>
                <polygon id="Fill-19" fill="#FFFFFF" points="81.1089767 15.16272 78.9029302 15.16272 78.9029302 13.86072 84.9133256 13.86072 84.9133256 15.16272 82.7051163 15.16272 82.7051163 20.7578595 81.1089767 20.7578595"></polygon>
                <path d="M90.1148372,19.2348223 C90.4414186,19.0488223 90.7009535,18.7871247 90.8869535,18.4540549 C91.0729535,18.1166595 91.1681163,17.7381712 91.1681163,17.3099386 C91.1681163,16.8838688 91.0729535,16.5010549 90.8869535,16.1679851 C90.7009535,15.8327526 90.4414186,15.5710549 90.1148372,15.3850549 C89.786093,15.1968921 89.4184186,15.1038921 89.0096512,15.1038921 C88.6030465,15.1038921 88.2353721,15.1968921 87.9066279,15.3850549 C87.5778837,15.5710549 87.3205116,15.8327526 87.1345116,16.1679851 C86.9463488,16.5010549 86.8533488,16.8838688 86.8533488,17.3099386 C86.8533488,17.7381712 86.9463488,18.1166595 87.1345116,18.4540549 C87.3205116,18.7871247 87.5778837,19.0488223 87.9066279,19.2348223 C88.2353721,19.4229851 88.6030465,19.5159851 89.0096512,19.5159851 C89.4184186,19.5159851 89.786093,19.4229851 90.1148372,19.2348223 M87.0761163,20.4135433 C86.500814,20.1042642 86.0509535,19.6781944 85.7265349,19.1374967 C85.3999535,18.5946363 85.2377442,17.9868921 85.2377442,17.3099386 C85.2377442,16.6329851 85.3999535,16.0252409 85.7265349,15.4823805 C86.0509535,14.9416828 86.500814,14.515613 87.0761163,14.206334 C87.6492558,13.8970549 88.2937674,13.7434967 89.0096512,13.7434967 C89.7255349,13.7434967 90.3700465,13.8970549 90.9410233,14.206334 C91.512,14.515613 91.9618605,14.9416828 92.2906047,15.4823805 C92.6193488,16.0252409 92.7815581,16.6329851 92.7815581,17.3099386 C92.7815581,17.9868921 92.6193488,18.5946363 92.2906047,19.1374967 C91.9618605,19.6781944 91.512,20.1042642 90.9410233,20.4135433 C90.3700465,20.7206595 89.7255349,20.8763805 89.0096512,20.8763805 C88.2937674,20.8763805 87.6492558,20.7206595 87.0761163,20.4135433" id="Fill-21" fill="#FFFFFF"></path>
            </g>
        </g>
    </g>
</svg>