<?xml version="1.0" encoding="UTF-8"?>
<svg width="44px" height="50px" viewBox="0 0 44 50" version="1.1" xmlns="http://www.w3.org/2000/svg" xmlns:xlink="http://www.w3.org/1999/xlink">
    <!-- Generator: Sketch 51.3 (57544) - http://www.bohemiancoding.com/sketch -->
    <title>Group</title>
    <desc>Created with Sketch.</desc>
    <defs></defs>
    <g id="Page-1" stroke="none" stroke-width="1" fill="none" fill-rule="evenodd">
        <g id="Store_login-screen" transform="translate(-208.000000, -729.000000)" fill-rule="nonzero">
            <g id="Group-2" transform="translate(122.000000, 729.000000)">
                <g id="Group" transform="translate(86.000000, 0.000000)">
                    <rect id="Rectangle-14" fill="#007BFF" x="8.69565217" y="20.2898551" width="31.884058" height="14.4927536"></rect>
                    <g id="magic-white-logo-60x71" fill="#FFFFFF">
                        <path d="M39.057971,22.6811594 L38.6956522,22.6811594 L38.6956522,23.115942 L38.9130435,23.115942 C39.057971,23.115942 39.2753623,23.115942 39.2753623,22.8985507 C39.2753623,22.7784888 39.1780329,22.6811594 39.057971,22.6811594 Z" id="Shape"></path>
                        <path d="M38.9130435,22.3188406 C38.4327959,22.3188406 38.0434783,22.7081582 38.0434783,23.1884058 C38.0434783,23.6686534 38.4327959,24.057971 38.9130435,24.057971 C39.3932911,24.057971 39.7826087,23.6686534 39.7826087,23.1884058 C39.7826087,22.7081582 39.3932911,22.3188406 38.9130435,22.3188406 Z M39.4202899,23.7681159 L39.2753623,23.7681159 L38.9855072,23.1884058 L38.6956522,23.1884058 L38.6956522,23.7681159 L38.5507246,23.7681159 L38.5507246,22.6086957 L39.057971,22.6086957 C39.3478261,22.6086957 39.4927536,22.6811594 39.4927536,22.8985507 C39.4927536,23.115942 39.2753623,23.1884058 39.1304348,23.1884058 L39.4202899,23.7681159 Z" id="Shape"></path>
                        <path d="M20.942029,25.6521739 C20.4630361,25.6407014 20.006612,25.8554892 19.7101449,26.2318841 C19.3506417,26.6256734 19.1674316,27.1491305 19.2028986,27.6811594 C19.1817024,28.1992761 19.3347835,28.7095462 19.6376812,29.1304348 C19.9678256,29.5047834 20.4428975,29.7192386 20.942029,29.7192386 C21.4411604,29.7192386 21.9162324,29.5047834 22.2463768,29.1304348 C22.9246385,28.2832863 22.9246385,27.0790326 22.2463768,26.2318841 C21.9092498,25.8682879 21.4378247,25.6587656 20.942029,25.6521739 Z" id="Shape"></path>
                        <path d="M27.5362319,25.6521739 C27.0157777,25.6190533 26.5176601,25.8681121 26.2318841,26.3043478 C25.9288973,26.6975317 25.7748728,27.185276 25.7971014,27.6811594 C25.7759053,28.1992761 25.9289864,28.7095462 26.2318841,29.1304348 C26.5620285,29.5047834 27.0371004,29.7192386 27.5362319,29.7192386 C28.0353633,29.7192386 28.5104353,29.5047834 28.8405797,29.1304348 C29.1434774,28.7095462 29.2965584,28.1992761 29.2753623,27.6811594 C29.3108292,27.1491305 29.1276192,26.6256734 28.7681159,26.2318841 C28.4716489,25.8554892 28.0152248,25.6407014 27.5362319,25.6521739 Z" id="Shape"></path>
                        <polygon id="Shape" points="35.5797101 24.057971 31.7391304 23.8405797 28.1884058 23.3333333 28.3333333 24.2753623 28.6956522 24.6376812 29.2028986 25.2173913 29.2028986 24.4927536 30.7971014 24.4927536 33.0434783 24.4927536 35.6521739 24.3478261"></polygon>
                        <polygon id="Shape" points="26.884058 24.2753623 21.4492754 24.2028986 21.9565217 24.5652174 22.6086957 25.2898551 22.6086957 24.4927536 24.1304348 24.4927536 24.6376812 24.7101449 26.0144928 24.4927536"></polygon>
                        <path d="M43.1884058,15.2173913 C43.1713847,14.8276468 43.122918,14.4399132 43.0434783,14.057971 C42.826087,13.1884058 42.7536232,12.3188406 42.5362319,11.4492754 C42.235501,10.1363981 41.8233804,8.85155166 41.3043478,7.60869565 C40.6916759,6.01999421 39.8091314,4.54908667 38.6956522,3.26086957 C37.6769661,2.02434673 36.3531257,1.07517817 34.8550725,0.507246377 C34.2750189,0.262433295 33.6663202,0.0919976549 33.0434783,0 L31.0869565,0 C30.2105215,0.107337541 29.3819061,0.458871341 28.6956522,1.01449275 C27.2846404,2.10936184 26.0398099,3.40300917 25,4.85507246 C23.9130435,6.37681159 22.7536232,7.82608696 21.5942029,9.27536232 C20.0870128,11.096903 18.3861923,12.7491286 16.5217391,14.2028986 C14.8550725,15.6521739 13.115942,16.9565217 11.3768116,18.3333333 C9.63768116,19.7101449 8.55072464,20.6521739 7.24637681,21.8115942 C5.86247975,23.0131049 4.60034326,24.3480569 3.47826087,25.7971014 C2.76540476,26.6907334 2.15755615,27.6632911 1.66666667,28.6956522 C1.2331093,29.7642277 0.940788274,30.8847916 0.797101449,32.0289855 C0.650291997,33.2158488 0.723992333,34.4196209 1.01449275,35.5797101 C1.50155414,37.6189647 2.5568613,39.4783154 4.05797101,40.942029 C5.84231568,42.6543579 7.86883833,44.0948981 10.0724638,45.2173913 C11.7391304,46.1594203 13.4057971,46.9565217 15.1449275,47.7536232 C16.7615634,48.412672 18.4352408,48.922052 20.1449275,49.2753623 L21.7391304,49.5652174 L23.9130435,49.7826087 C25.0999363,49.7823683 26.2857107,49.7097698 27.4637681,49.5652174 C28.275999,49.4408124 29.0760417,49.2468627 29.8550725,48.9855072 C31.4777344,48.5185446 33.0006588,47.7570824 34.3478261,46.7391304 C35.6757613,45.7854665 36.828124,44.6085855 37.7536232,43.2608696 C38.6989095,42.0003782 39.4556387,40.6089731 40,39.1304348 C40.461902,38.0470119 40.8492766,36.9333099 41.1594203,35.7971014 C41.3768116,35 41.5217391,34.2753623 41.7391304,33.4782609 L42.3913043,30.7971014 C42.5362319,29.7826087 42.7536232,28.6956522 42.8985507,27.6086957 L43.3333333,24.2028986 C43.4057971,23.1884058 43.4782609,22.1014493 43.4782609,21.0869565 C43.4901821,19.1265817 43.3934153,17.1670535 43.1884058,15.2173913 Z M17.4637681,30.7971014 L16.0144928,30.7971014 L16.0144928,27.3188406 C16.0384991,26.8733801 15.9642838,26.4280885 15.7971014,26.0144928 C15.6395155,25.7708192 15.3619541,25.6320385 15.0724638,25.6521739 C14.7210973,25.6063972 14.3770971,25.7783973 14.2028986,26.0869565 C13.9664309,26.5573048 13.8660407,27.084353 13.9130435,27.6086957 L13.9130435,30.7971014 L12.4637681,30.7971014 L12.4637681,27.3188406 C12.4637681,26.2318841 12.1014493,25.6521739 11.4492754,25.6521739 C11.0858038,25.6392164 10.7473419,25.8366525 10.5797101,26.1594203 C10.3324798,26.599785 10.2310135,27.1071165 10.2898551,27.6086957 L10.2898551,30.7971014 L8.84057971,30.7971014 L8.84057971,24.4927536 L10.2898551,24.4927536 L10.2898551,25.1449275 C10.4906892,24.8861674 10.7360802,24.6653155 11.0144928,24.4927536 L11.8115942,24.3478261 C12.5012506,24.3186664 13.1475462,24.683964 13.4782609,25.2898551 C13.9020502,24.6722326 14.6139472,24.316284 15.3623188,24.3478261 C16.8115942,24.3478261 17.4637681,25.2173913 17.4637681,26.9565217 L17.4637681,30.7971014 Z M24.1304348,30.7971014 L22.6086957,30.7971014 L22.6086957,30.1449275 C22.1228424,30.6759079 21.4439129,30.98926 20.7246377,31.0144928 C19.8950496,31.0442145 19.0963242,30.6981002 18.5507246,30.0724638 C17.3801395,28.693144 17.3801395,26.6691748 18.5507246,25.2898551 C19.0671917,24.666916 19.8434987,24.3189163 20.6521739,24.3478261 C21.4125928,24.3526469 22.1307238,24.6984136 22.6086957,25.2898551 L22.6086957,24.4927536 L24.1304348,24.4927536 L24.1304348,30.7971014 Z M30.7246377,30.6521739 C30.7246377,31.0144928 30.6521739,31.2318841 30.6521739,31.4492754 C30.6635651,31.6691584 30.6390905,31.8894297 30.5797101,32.1014493 C30.5088749,32.5378827 30.3066456,32.9423414 30,33.2608696 C29.3944837,33.9392962 28.5173278,34.3114229 27.6086957,34.2753623 C26.8767347,34.3032139 26.1583591,34.0723075 25.5797101,33.6231884 C24.9971266,33.1300291 24.6325811,32.426977 24.5652174,31.6666667 L26.0144928,31.6666667 C26.0666062,31.9237203 26.1648067,32.1692218 26.3043478,32.3913043 C26.6235055,32.779261 27.1068593,32.9940849 27.6086957,32.9710145 C28.6956522,32.9710145 29.2028986,32.3188406 29.2028986,31.0144928 L29.2028986,30.1449275 C28.6997764,30.6939032 27.9910076,31.0089116 27.2463768,31.0144928 C26.4354911,31.0549394 25.6542527,30.7047291 25.1449275,30.0724638 C24.5614163,29.443942 24.2490051,28.6108456 24.2753623,27.7536232 C24.2586715,26.8886522 24.5401285,26.0442811 25.0724638,25.3623188 C25.6104979,24.7181118 26.4070429,24.3463908 27.2463768,24.3478261 C27.9969935,24.3243481 28.7173349,24.6444998 29.2028986,25.2173913 L29.2028986,24.4927536 L30.7246377,24.4927536 L30.7246377,30.6521739 Z M31.2318841,21.2318841 C31.4181011,21.0765142 31.6439473,20.9761382 31.884058,20.942029 C32.1495259,20.9624244 32.4023944,21.0635718 32.6086957,21.2318841 C32.7640655,21.4181011 32.8644415,21.6439473 32.8985507,21.884058 C32.8781553,22.1495259 32.7770079,22.4023944 32.6086957,22.6086957 C32.4224786,22.7640655 32.1966324,22.8644415 31.9565217,22.8985507 C31.3962329,22.8985507 30.942029,22.4443468 30.942029,21.884058 C30.9761382,21.6439473 31.0765142,21.4181011 31.2318841,21.2318841 Z M32.6811594,30.7971014 L31.1594203,30.7971014 L31.1594203,24.4927536 L32.6811594,24.4927536 L32.6811594,30.7971014 Z M38.0434783,26.7391304 C37.7916522,26.4135897 37.4994538,26.1213912 37.173913,25.8695652 C36.8820066,25.7222562 36.558823,25.6476754 36.2318841,25.6521739 C35.446888,25.7280862 34.7704821,26.2371309 34.4802177,26.9704304 C34.1899534,27.7037298 34.3347035,28.5378155 34.8550725,29.1304348 C35.2145204,29.5051359 35.7126718,29.7148839 36.2318841,29.7101449 C36.558823,29.7146434 36.8820066,29.6400626 37.173913,29.4927536 C37.4999808,29.2415268 37.7922514,28.9492562 38.0434783,28.6231884 L38.0434783,30.5797101 C37.5061818,30.8597975 36.9102387,31.0087833 36.3043478,31.0144928 C34.9212948,31.0746197 33.6450304,30.2736383 33.0977625,29.0020453 C32.5504947,27.7304523 32.846146,26.2529503 33.8405797,25.2898551 C34.5180024,24.6834778 35.3951752,24.3480882 36.3043478,24.3478261 C36.9113253,24.3447893 37.509339,24.4942927 38.0434783,24.7826087 L38.0434783,26.7391304 Z M38.9130435,24.2028986 C38.3680318,24.1676285 37.9338208,23.7334175 37.8985507,23.1884058 C37.8985507,22.6281169 38.3527546,22.173913 38.9130435,22.173913 C39.4733324,22.173913 39.9275362,22.6281169 39.9275362,23.1884058 C39.9275362,23.7486947 39.4733324,24.2028986 38.9130435,24.2028986 Z" id="Shape"></path>
                    </g>
                </g>
            </g>
        </g>
    </g>
</svg>