<?xml version="1.0" encoding="UTF-8"?>
<svg width="127px" height="58px" viewBox="0 0 127 58" version="1.1" xmlns="http://www.w3.org/2000/svg" xmlns:xlink="http://www.w3.org/1999/xlink">
    <!-- Generator: Sketch 51.3 (57544) - http://www.bohemiancoding.com/sketch -->
    <title>chart</title>
    <desc>Created with Sketch.</desc>
    <defs></defs>
    <g id="Page-1" stroke="none" stroke-width="1" fill="none" fill-rule="evenodd" stroke-linecap="round">
        <g id="Store_dashboard-screen" transform="translate(-214.000000, -324.000000)" stroke="#FFFFFF" stroke-width="2">
            <path d="M215,381 C217.620987,367.195393 220.060812,360.293089 222.319476,360.293089 C225.707472,360.293089 225.453944,367.528908 228.548245,367.046997 C231.642547,366.565086 231.528337,359.271403 233.530812,358.706976 C235.533286,358.142549 237.46304,366.826266 240.744133,366.298016 C244.025226,365.769766 242.354181,345.107266 245.958447,345.107266 C249.562713,345.107266 252.300847,358.953077 256.04992,355.768613 C259.798993,352.584148 261.371137,327.862326 264.038269,327.862326 C266.705402,327.862326 267.018313,358.30449 268.744438,360.293089 C270.470563,362.281688 272.421174,350.60944 275.027032,349.78321 C277.63289,348.95698 277.701844,360.293089 280.892045,360.293089 C284.082245,360.293089 284.468346,351.435689 286.729523,350.575283 C288.990699,349.714877 294.827178,354.612648 298.070188,353.000563 C301.313198,351.388478 304.3012,325.603798 306.529579,325.008876 C308.757958,324.413954 310.811056,353.924846 314.563867,353.000563 C318.316677,352.076281 320.384461,338.453989 322.872381,339.034773 C325.3603,339.615556 324.848961,354.883731 328.792402,354.883731 C332.735844,354.883731 332.425714,347.629283 334.468716,346.425894 C335.830717,345.623635 337.674478,348.737875 340,355.768613" id="chart"></path>
        </g>
    </g>
</svg>