<?xml version="1.0" encoding="UTF-8"?>
<svg width="21px" height="24px" viewBox="0 0 21 24" version="1.1" xmlns="http://www.w3.org/2000/svg" xmlns:xlink="http://www.w3.org/1999/xlink">
    <!-- Generator: Sketch 51.3 (57544) - http://www.bohemiancoding.com/sketch -->
    <title>icons8-warning-shield (1)</title>
    <desc>Created with Sketch.</desc>
    <defs>
        <linearGradient x1="100%" y1="4.69988559%" x2="0%" y2="94.8441756%" id="linearGradient-1">
            <stop stop-color="#FAD961" offset="0%"></stop>
            <stop stop-color="#E77A39" offset="100%"></stop>
        </linearGradient>
    </defs>
    <g id="Page-1" stroke="none" stroke-width="1" fill="none" fill-rule="evenodd">
        <g id="Dashboard_Empty" transform="translate(-29.000000, -96.000000)" fill="url(#linearGradient-1)">
            <g id="icons8-warning-shield-(1)" transform="translate(29.000000, 96.000000)">
                <path d="M10.5,0 C9.32919034,0 8.34108689,0.642869864 6.87571023,1.39319322 C5.41033405,2.14351658 3.44344827,3.04946307 0.372869318,3.72012233 L0,3.80904956 L0,4.17957967 C0,11.4456754 2.56347668,16.3014724 5.13068182,19.3120295 C7.69788695,22.3225865 10.306108,23.5212516 10.306108,23.5212516 L10.5149148,23.625 L10.7237216,23.5212516 C10.7237216,23.5212516 21,18.2449028 21,4.17957967 L21,3.80904956 L20.6271307,3.72012233 C17.5565517,3.04946307 15.5896664,2.14351658 14.1242898,1.39319322 C12.6589136,0.642869864 11.6708097,0 10.5,0 Z M10.5,0.948557089 C11.2848898,0.948557089 12.1946909,1.47285732 13.6917614,2.23800188 C15.1142579,2.9642409 17.1147017,3.85536571 20.015625,4.53528858 C19.8403767,17.396389 11.0984551,22.2206911 10.4850852,22.5430521 C10.188654,22.4003981 8.12295798,21.3740294 5.84659091,18.7043601 C3.44717673,15.8901838 1.07199941,11.3641588 0.984375,4.53528858 C3.8852983,3.85536571 5.88574207,2.9642409 7.30823864,2.23800188 C8.80530907,1.47285732 9.7151102,0.948557089 10.5,0.948557089 Z M9.88849432,5.78026976 C9.78595514,5.78026976 9.70951705,5.85622832 9.70951705,5.95812422 L9.70951705,14.0653231 C9.70951705,14.167219 9.78409091,14.2283563 9.88849432,14.2283563 L11.1860795,14.2283563 C11.2886187,14.2283563 11.3650568,14.167219 11.3650568,14.0653231 L11.3650568,5.95812422 C11.3650568,5.85622832 11.2886187,5.78026976 11.1860795,5.78026976 L9.88849432,5.78026976 Z M9.88849432,15.8883312 C9.78595514,15.8883312 9.70951705,15.9494686 9.70951705,16.0513645 L9.70951705,17.5186637 C9.70951705,17.6205596 9.78409091,17.681697 9.88849432,17.681697 L11.1860795,17.681697 C11.2886187,17.681697 11.3650568,17.6205596 11.3650568,17.5186637 L11.3650568,16.0513645 C11.3650568,15.9494686 11.2886187,15.8883312 11.1860795,15.8883312 L9.88849432,15.8883312 Z" id="Shape"></path>
            </g>
        </g>
    </g>
</svg>