<?xml version="1.0" encoding="UTF-8"?>
<svg width="60px" height="60px" viewBox="0 0 60 60" version="1.1" xmlns="http://www.w3.org/2000/svg" xmlns:xlink="http://www.w3.org/1999/xlink">
    <!-- Generator: Sketch 51.3 (57544) - http://www.bohemiancoding.com/sketch -->
    <title>profile</title>
    <desc>Created with Sketch.</desc>
    <defs></defs>
    <g id="Page-1" stroke="none" stroke-width="1" fill="none" fill-rule="evenodd">
        <g id="Customer_main-screen" transform="translate(-84.000000, -134.000000)" fill="#0A84FF" fill-rule="nonzero">
            <g id="profile" transform="translate(84.000000, 134.000000)">
                <path d="M30,0 C13.4469078,0 2.60869565e-07,13.4469073 0,29.9999997 C0,45.7884129 12.2364913,58.7418039 27.7301296,59.9057413 C27.7606761,59.9082235 27.7912343,59.9109965 27.8218409,59.9133835 C28.5422674,59.9652952 29.2664752,60 30,60 C30.7335248,60 31.4577326,59.9652952 32.1781591,59.9133835 C32.2087657,59.9109965 32.2393239,59.9082235 32.2698704,59.9057413 C47.7635087,58.7418039 60,45.7884129 60,29.9999997 C60,13.4469073 46.5530922,0 30,0 Z M30,2.60869568 C45.1432487,2.60869568 57.3913043,14.8567508 57.3913043,29.9999997 C57.3913043,37.4761341 54.3975822,44.2385998 49.5524791,49.1779903 C47.4796617,47.6685755 44.9180791,46.7681412 42.6231313,45.9629764 C39.9048704,45.0108024 37.3332678,44.1081937 36.6210939,42.5390633 C36.50892,41.1994981 36.5189465,40.1534111 36.5293813,38.9521067 L36.5319287,38.4425959 C37.6901909,37.3404219 39.1467796,35.0142597 39.6450404,32.8659988 C40.50591,32.4068684 41.5584991,31.3062636 41.8741513,28.6701766 C42.0319774,27.3619157 41.6596461,26.3487231 41.137907,25.6691579 C41.8422548,23.2495926 43.2436748,17.1243348 40.7888922,13.1708564 C39.7506313,11.4999869 38.1838865,10.445809 36.12432,10.0297215 C34.9673635,8.59754762 32.7841096,7.81589682 29.8649791,7.81589682 C25.4288922,7.89807074 22.176827,9.25681393 20.204653,11.8537703 C17.8790009,14.9189878 17.4395583,19.5501974 18.8952104,25.6258496 C18.3565148,26.3054149 17.9679626,27.3332814 18.1283974,28.6676292 C18.4453539,31.3037162 19.49409,32.404321 20.3549596,32.8634514 C20.8532204,35.014321 22.3085061,37.3404219 23.4680713,38.4425959 L23.4706187,38.9393685 C23.4810535,40.1458902 23.49108,41.1942807 23.3789061,42.5390633 C22.6641235,44.1121068 20.0801491,45.0245385 17.3488448,45.9884516 C15.0676774,46.7939712 12.5212578,47.695792 10.4526157,49.1856325 C5.60376404,44.245685 2.60869565,37.4794054 2.60869565,29.9999997 C2.60869591,14.8567521 14.8567513,2.60869568 30,2.60869568 Z" id="Shape"></path>
            </g>
        </g>
    </g>
</svg>