<?xml version="1.0" encoding="UTF-8"?>
<svg width="51px" height="52px" viewBox="0 0 51 52" version="1.1" xmlns="http://www.w3.org/2000/svg" xmlns:xlink="http://www.w3.org/1999/xlink">
    <!-- Generator: Sketch 51.3 (57544) - http://www.bohemiancoding.com/sketch -->
    <title>Shape</title>
    <desc>Created with Sketch.</desc>
    <defs></defs>
    <g id="Page-1" stroke="none" stroke-width="1" fill="none" fill-rule="evenodd">
        <g id="icons8-warm" fill="#0A84FF" fill-rule="nonzero">
            <path d="M43.625,0.96875 C41.652344,0.96875 39.804688,1.757813 38.40625,3.15625 C38.359375,3.203125 38.191406,3.339844 37.96875,3.5625 L39.71875,5.28125 C40.109375,5.671875 40.109375,6.328125 39.71875,6.71875 C39.523438,6.914063 39.257813,7 39,7 C38.742188,7 38.476563,6.914063 38.28125,6.71875 L36.5625,4.96875 L33.96875,7.5625 L36.71875,10.28125 C37.109375,10.671875 37.109375,11.328125 36.71875,11.71875 C36.523438,11.914063 36.257813,12 36,12 C35.742188,12 35.476563,11.914063 35.28125,11.71875 L32.5625,8.96875 C31.75,9.785156 30.871094,10.660156 29.96875,11.5625 L31.71875,13.28125 C32.109375,13.671875 32.109375,14.328125 31.71875,14.71875 C31.523438,14.914063 31.257813,15 31,15 C30.742188,15 30.476563,14.914063 30.28125,14.71875 L28.5625,12.96875 L25.96875,15.5625 L28.71875,18.28125 C29.109375,18.671875 29.109375,19.328125 28.71875,19.71875 C28.523438,19.914063 28.257813,20 28,20 C27.742188,20 27.476563,19.914063 27.28125,19.71875 L24.5625,16.96875 L21.96875,19.5625 L23.71875,21.28125 C24.109375,21.671875 24.109375,22.328125 23.71875,22.71875 C23.523438,22.914063 23.257813,23 23,23 C22.742188,23 22.476563,22.914063 22.28125,22.71875 L20.5625,20.96875 L17.96875,23.5625 L20.71875,26.28125 C21.109375,26.671875 21.109375,27.328125 20.71875,27.71875 C20.523438,27.914063 20.257813,28 20,28 C19.742188,28 19.476563,27.914063 19.28125,27.71875 L16.5625,24.96875 L13.96875,27.5625 L15.71875,29.28125 C16.109375,29.671875 16.109375,30.328125 15.71875,30.71875 C15.523438,30.914063 15.257813,31 15,31 C14.742188,31 14.476563,30.914063 14.28125,30.71875 L12.5625,28.96875 L11.96875,29.59375 C10.847656,30.714844 10.511719,32.625 10.1875,34.46875 C9.910156,36.042969 9.613281,37.664063 8.84375,38.4375 L7.84375,39.4375 L9.5,41.09375 L34.65625,15.9375 C35.046875,15.546875 35.671875,15.546875 36.0625,15.9375 C36.453125,16.328125 36.453125,16.953125 36.0625,17.34375 L10.90625,42.5 L12.5625,44.15625 L13.5625,43.15625 C14.3125,42.40625 15.933594,42.121094 17.5,41.84375 C19.359375,41.515625 21.277344,41.15625 22.40625,40.03125 C23.101563,39.332031 48.085938,14.347656 48.84375,13.59375 C51.726563,10.710938 51.726563,6.039063 48.84375,3.15625 C47.449219,1.757813 45.601563,0.96875 43.625,0.96875 Z M6.4375,40.84375 C4.375,42.90625 2.015625,45.261719 1.9375,45.34375 C1.304688,45.976563 0.9375,46.828125 0.9375,47.71875 C0.9375,48.613281 1.304688,49.429688 1.9375,50.0625 C2.570313,50.695313 3.386719,51.0625 4.28125,51.0625 C5.171875,51.0625 6.023438,50.695313 6.65625,50.0625 C6.742188,49.976563 9.101563,47.617188 11.15625,45.5625 L6.4375,40.84375 Z" id="Shape"></path>
        </g>
    </g>
</svg>