<?xml version="1.0" encoding="UTF-8"?>
<svg width="285px" height="284px" viewBox="0 0 285 284" version="1.1" xmlns="http://www.w3.org/2000/svg" xmlns:xlink="http://www.w3.org/1999/xlink">
    <!-- Generator: Sketch 51.3 (57544) - http://www.bohemiancoding.com/sketch -->
    <title>QR code</title>
    <desc>Created with Sketch.</desc>
    <defs></defs>
    <g id="Page-1" stroke="none" stroke-width="1" fill="none" fill-rule="evenodd">
        <g id="Customer_main-screen" transform="translate(-45.000000, -345.000000)" fill="#FFFFFF" fill-rule="nonzero">
            <path d="M187.004788,410.082535 L210.669858,410.082535 L210.669858,439.665071 L222.504788,439.665071 L222.504788,356.830142 L210.669858,356.830142 L210.669858,398.242819 L189.72414,398.242819 L189.72414,386.412677 L166.059069,386.412677 L166.059069,398.247606 L187.004788,398.247606 L187.004788,410.082535 Z M305.334929,368.665071 L258,368.665071 L258,415.995212 L305.334929,415.995212 L305.334929,368.665071 Z M187.004788,427.830142 L189.72414,427.830142 L189.72414,415.995212 L166.059069,415.995212 L166.059069,427.830142 L163.339717,427.830142 L163.339717,356.830142 L151.504788,356.830142 L151.504788,439.660283 L187.004788,439.660283 L187.004788,427.830142 Z M196.44592,371.030142 L172.78085,371.030142 L172.78085,382.865071 L196.44592,382.865071 L196.44592,371.030142 Z M246.165071,451.495212 L246.165071,463.325354 L222.504788,463.325354 L222.504788,475.160283 L269.834929,475.160283 L269.834929,451.495212 L246.165071,451.495212 Z M329,522.495212 L329,510.660283 L305.334929,510.660283 L305.334929,522.495212 L329,522.495212 Z M317.169858,498.830142 L317.169858,486.995212 L329.004788,486.995212 L329.004788,463.330142 L317.169858,463.330142 L317.169858,451.5 L281.669858,451.5 L281.669858,475.165071 L305.334929,475.165071 L305.334929,486.995212 L293.5,486.995212 L293.5,498.830142 L281.665071,498.830142 L281.665071,475.165071 L269.830142,475.165071 L269.830142,522.5 L293.495212,522.5 L293.495212,510.665071 L305.330142,510.665071 L305.330142,498.830142 L317.169858,498.830142 Z M258,546.160283 L281.665071,546.160283 L281.665071,534.325354 L258,534.325354 L258,546.160283 Z M329,345 L234.339717,345 L234.339717,439.665071 L329,439.665071 L329,345 Z M317.169858,427.830142 L246.169858,427.830142 L246.169858,356.830142 L317.169858,356.830142 L317.169858,427.830142 Z M234.339717,605.325354 L258,605.325354 L258,593.490425 L234.339717,593.490425 L234.339717,605.325354 Z M68.674646,415.995212 L116.004788,415.995212 L116.004788,368.665071 L68.674646,368.665071 L68.674646,415.995212 Z M187.004788,593.490425 L163.339717,593.490425 L163.339717,617.155496 L187.004788,617.155496 L187.004788,628.990425 L210.669858,628.990425 L210.669858,617.155496 L222.504788,617.155496 L222.504788,628.990425 L246.165071,628.990425 L246.165071,617.155496 L234.334929,617.155496 L234.334929,605.320566 L187.004788,605.320566 L187.004788,593.490425 Z M329,628.990425 L329,581.655496 L305.334929,581.655496 L305.334929,605.320566 L293.5,605.320566 L293.5,593.485637 L281.665071,593.485637 L281.665071,581.650708 L305.330142,581.650708 L305.330142,557.995212 L317.165071,557.995212 L317.165071,546.160283 L329,546.160283 L329,534.325354 L305.334929,534.325354 L305.334929,546.160283 L293.5,546.160283 L293.5,557.995212 L269.834929,557.995212 L269.834929,569.825354 L258,569.825354 L258,557.995212 L210.669858,557.995212 L210.669858,546.160283 L222.504788,546.160283 L222.504788,534.325354 L234.339717,534.325354 L234.339717,522.490425 L246.169858,522.490425 L246.169858,498.825354 L234.339717,498.825354 L234.339717,486.995212 L198.839717,486.995212 L198.839717,510.660283 L187.004788,510.660283 L187.004788,557.995212 L175.169858,557.995212 L175.169858,534.330142 L151.504788,534.330142 L151.504788,557.995212 L163.339717,557.995212 L163.339717,581.655496 L198.839717,581.655496 L198.839717,593.490425 L234.339717,593.490425 L234.339717,569.825354 L246.169858,569.825354 L246.169858,581.660283 L258.004788,581.660283 L258.004788,593.495212 L269.839717,593.495212 L269.839717,605.330142 L281.674646,605.330142 L281.674646,617.165071 L293.509575,617.165071 L293.509575,629 L329,629 L329,628.990425 Z M198.839717,522.495212 L210.674646,522.495212 L210.674646,534.330142 L198.839717,534.330142 L198.839717,522.495212 Z M210.669858,475.160283 L210.669858,451.495212 L116.004788,451.495212 L116.004788,463.325354 L104.169858,463.325354 L104.169858,451.495212 L68.6698584,451.495212 L68.6698584,475.160283 L92.3349292,475.160283 L92.3349292,486.995212 L80.5,486.995212 L80.5,498.830142 L68.6650708,498.830142 L68.6650708,475.165071 L45,475.165071 L45,522.5 L80.5,522.5 L80.5,510.665071 L92.3349292,510.665071 L92.3349292,498.830142 L104.165071,498.830142 L104.165071,486.995212 L116,486.995212 L116,475.160283 L127.834929,475.160283 L127.834929,463.325354 L139.669858,463.325354 L139.669858,486.995212 L127.834929,486.995212 L127.834929,498.830142 L151.5,498.830142 L151.5,475.165071 L163.334929,475.165071 L163.334929,510.665071 L104.174646,510.665071 L104.174646,522.5 L175.174646,522.5 L175.174646,510.665071 L187.004788,510.665071 L187.004788,475.165071 L210.669858,475.165071 L210.669858,475.160283 Z M45.0095752,628.990425 L139.674646,628.990425 L139.674646,534.330142 L45.0095752,534.330142 L45.0095752,628.990425 Z M56.8397168,546.160283 L127.839717,546.160283 L127.839717,617.155496 L56.8397168,617.155496 L56.8397168,546.160283 Z M45.0095752,439.665071 L139.674646,439.665071 L139.674646,345 L45.0095752,345 L45.0095752,439.665071 Z M56.8397168,356.830142 L127.839717,356.830142 L127.839717,427.830142 L56.8397168,427.830142 L56.8397168,356.830142 Z M68.674646,605.325354 L116.004788,605.325354 L116.004788,557.995212 L68.674646,557.995212 L68.674646,605.325354 Z" id="QR-code"></path>
        </g>
    </g>
</svg>